<svg xmlns="http://www.w3.org/2000/svg" width="260" height="81.001" viewBox="0 0 260 81.001">
  <defs>
    <style>
      .cls-1 {
        fill: #050627;
      }

      .cls-2, .cls-3 {
        stroke: none;
      }

      .cls-3 {
        fill: #cd4e6b;
      }
    </style>
  </defs>
  <g id="Subtraction_2" data-name="Subtraction 2" class="cls-1" transform="translate(2251 22)">
    <path class="cls-2" d="M -1993.499877929688 56.50137710571289 L -2045.6181640625 56.50090408325195 L -2053.25390625 54.11450576782227 L -2053.6181640625 54.00068664550781 L -2053.999755859375 54.00068664550781 L -2188 54.00068664550781 L -2188.381591796875 54.00068664550781 L -2188.745849609375 54.11450576782227 L -2196.381591796875 56.50090026855469 L -2248.5 56.50090026855469 L -2248.5 -19.49959945678711 L -2196.380126953125 -19.49959945678711 L -2188.745849609375 -17.11367034912109 L -2188.381591796875 -16.99984931945801 L -2188 -16.99984931945801 L -2053.999755859375 -16.99984931945801 L -2053.6181640625 -16.99984931945801 L -2053.25390625 -17.11367034912109 L -2045.619506835938 -19.49959945678711 L -1993.499877929688 -19.49959945678711 L -1993.499877929688 56.50137710571289 Z"/>
    <path class="cls-3" d="M -1995.999877929688 54.0013542175293 L -1995.999877929688 -16.99959945678711 L -2045.237915039062 -16.99959945678711 L -2053.236572265625 -14.49983024597168 L -2188.76318359375 -14.49983024597168 L -2196.76171875 -16.99959945678711 L -2246 -16.99959945678711 L -2246 54.00090026855469 L -2196.76318359375 54.00090026855469 L -2188.76318359375 51.50067138671875 L -2053.236572265625 51.50067138671875 L -2045.236694335938 54.00090789794922 L -1995.999877929688 54.0013542175293 M -1990.999877929688 59.00139999389648 L -2045.999755859375 59.00090026855469 L -2053.999755859375 56.50067138671875 L -2188 56.50067138671875 L -2196 59.00090026855469 L -2251 59.00090026855469 L -2251 -21.99959945678711 L -2195.99853515625 -21.99959945678711 L -2188 -19.49983024597168 L -2053.999755859375 -19.49983024597168 L -2046.001098632812 -21.99959945678711 L -1990.999877929688 -21.99959945678711 L -1990.999877929688 59.00139999389648 Z"/>
  </g>
</svg>
